inDegrees=yes
name=ik_Xsens_quaternion (2)
DataType=double
version=3
OpenSimVersion=4.4-2022-07-23-0e9fedc
endheader
time	pelvis_tilt	pelvis_list	pelvis_rotation	pelvis_tx	pelvis_ty	pelvis_tz	hip_flexion_r	hip_adduction_r	hip_rotation_r	knee_angle_r	knee_angle_r_beta	ankle_angle_r	subtalar_angle_r	mtp_angle_r	hip_flexion_l	hip_adduction_l	hip_rotation_l	knee_angle_l	knee_angle_l_beta	ankle_angle_l	subtalar_angle_l	mtp_angle_l	lumbar_extension	lumbar_bending	lumbar_rotation	arm_flex_r	arm_add_r	arm_rot_r	elbow_flex_r	pro_sup_r	wrist_flex_r	wrist_dev_r	arm_flex_l	arm_add_l	arm_rot_l	elbow_flex_l	pro_sup_l	wrist_flex_l	wrist_dev_l
0	105479.998976294	-123480.0072194302	-8753.285539800569	0	0.93	0	0.3275907347666219	-0.007892765753042626	-0.1435519442592464	0.6545044685735611	0.0114232579456244	0.349951976403302	0	0	0.2932537251200127	-0.005606177468996159	-0.07054441645110521	0.6071431935887165	0.01059664775919643	0.3278767593531118	0	0	0	0	0	0	0	0	0	0	0	0	0	0	0	0	0	0	0
0.01	105479.9957321336	-123480.0119309156	-8753.275047940551	0	0.93	0	0.3277618113588697	-0.005522557741000233	-0.1409615761508525	0.6542866955551133	0.01141945708943047	0.3479828271216128	0	0	0.2989650643100513	-0.006198866354785421	-0.07598756310919048	0.6093923983481775	0.01063590378780055	0.3274544718668833	0	0	0	0	0	0	0	0	2.426570649309934e-20	2.426570649309934e-20	0	0	0	0	0	2.426570649309934e-20	2.426570649309934e-20	0	0
0.02	105479.9924053405	-123480.0182333385	-8753.27124336715	0	0.93	0	0.3285509356065914	-0.002962982413040346	-0.1399939269480218	0.6539784703670907	0.0114140775450619	0.3458899781455082	0	0	0.3036297430592889	-0.006873086107977444	-0.08085316876082446	0.612227642642718	0.01068538813583867	0.3256880590622767	0	0	0	0	0	0	0	0	2.426570649309934e-20	2.426570649309934e-20	0	0	0	0	0	2.426570649309934e-20	2.426570649309934e-20	0	0
0.03	105479.9903635125	-123480.0238428159	-8753.265862302578	0	0.93	0	0.3291524895274078	-0.0009507379157636057	-0.1414668589368523	0.6536617916352606	0.01140855045852043	0.3433362013599894	0	0	0.3084733369850604	-0.009010315161319485	-0.08641376470479353	0.6151484894056976	0.01073636652879888	0.3234258080132676	0	0	0	0	0	0	0	0	2.426570649309934e-20	2.426570649309934e-20	0	0	0	0	0	2.426570649309934e-20	2.426570649309934e-20	0	0
0.04	105479.9885917988	-123480.029237045	-8753.261139406908	0	0.93	0	0.3301443927365095	0.00162896198656402	-0.1448537324837768	0.6532221731172456	0.01140087766792833	0.3405103058728325	0	0	0.3131848906847173	-0.01026694420299151	-0.09255558348007059	0.6182481747777638	0.01079046624431734	0.3204107526655683	0	0	0	0	0	0	0	0	2.426570649309934e-20	2.426570649309934e-20	0	0	0	0	0	2.426570649309934e-20	2.426570649309934e-20	0	0
0.05	105479.9862534796	-123480.0349054568	-8753.257034937313	0	0.93	0	0.3310126505869888	0.004120621126741657	-0.1485127464505969	0.6529332848028906	0.0113958356156723	0.3375103671921446	0	0	0.3186831489773196	-0.01154031652362179	-0.09813814834854495	0.6213584674648068	0.01084475109240694	0.3170434760270119	0	0	0	0	0	0	0	0	2.426570649309934e-20	2.426570649309934e-20	0	0	0	0	0	2.426570649309934e-20	2.426570649309934e-20	0	0
0.06	105479.9845199057	-123480.040586196	-8753.252863351519	0	0.93	0	0.331961349592198	0.006623457634185117	-0.152045959967234	0.6528901214892231	0.01139508227373273	0.3340529766812407	0	0	0.324740993263428	-0.011728753786456	-0.1029953644830276	0.6244080211209675	0.01089797584442318	0.3132770111229071	0	0	0	0	0	0	0	0	2.426570649309934e-20	2.426570649309934e-20	0	0	0	0	0	2.426570649309934e-20	2.426570649309934e-20	0	0
0.07000000000000001	105479.9815235976	-123480.0447750608	-8753.245368723485	0	0.93	0	0.3355784568020035	0.009354344098828416	-0.1572159152977553	0.6575959281590994	0.01147721409408438	0.329584745445696	0	0	0.3345162376508272	-0.01311856806581964	-0.1067337060932037	0.6316088328620738	0.01102365371812175	0.3079155117572384	0	0	0	0	0	0	0	0	2.426570649309934e-20	2.426570649309934e-20	0	0	0	0	0	2.426570649309934e-20	2.426570649309934e-20	0	0
0.08	105479.9835126904	-123480.0530463413	-8753.254604872162	0	0.93	0	0.3453916113489123	0.009515359824714008	-0.1568502115210477	0.671050987128321	0.01171204917414729	0.321590056579623	0	0	0.3534013847936778	-0.01278092210874304	-0.1192139867627047	0.6475644798440341	0.01130213229224285	0.2984103855304713	0	0	0	0	0	0	0	0	2.426570649309934e-20	2.426570649309934e-20	0	0	0	0	0	2.426570649309934e-20	2.426570649309934e-20	0	0
0.09	105479.9785033782	-123480.0559198758	-8753.244915566664	0	0.93	0	0.3505163704725885	0.01227231820566718	-0.1583240085272714	0.673081388573023	0.01174748636449459	0.3196213208471659	0	0	0.3610044469953532	-0.01307462099521003	-0.1221640587386414	0.651951460811848	0.01137869955435353	0.2945602355151148	0	0	0	0	0	0	0	0	2.426570649309934e-20	2.426570649309934e-20	0	0	0	0	0	2.426570649309934e-20	2.426570649309934e-20	0	0
0.1	105479.9780259474	-123480.0622690074	-8753.24961172445	0	0.93	0	0.3558789659817079	0.01519699249014292	-0.1580346473593485	0.6761041308100677	0.01180024316897012	0.31698249585649	0	0	0.3691336318252774	-0.01253487106454333	-0.1263591176415296	0.656875253588153	0.01146463594998597	0.2901019788000275	0	0	0	0	0	0	0	0	2.426570649309934e-20	2.426570649309934e-20	0	0	0	0	0	2.426570649309934e-20	2.426570649309934e-20	0	0
0.11	105479.9735330177	-123480.064809455	-8753.245835287946	0	0.93	0	0.3607553511887522	0.01798396757543472	-0.1586679000893485	0.6784128858953882	0.01184053854683112	0.3142632379650526	0	0	0.3767574849391898	-0.01414006055936349	-0.1304003352762659	0.6610751386720295	0.01153793777290501	0.2861052893175413	0	0	0	0	0	0	0	0	2.426570649309934e-20	2.426570649309934e-20	0	0	0	0	0	2.426570649309934e-20	2.426570649309934e-20	0	0
0.12	105479.9736906234	-123480.069289377	-8753.248773433746	0	0.93	0	0.3655186724727684	0.02031825142955004	-0.1580753337560985	0.6806706283996469	0.01187994358719266	0.3109960907505488	0	0	0.3841597435736512	-0.01550588160323681	-0.136397279156518	0.6648970455323396	0.01160464263132198	0.2820332635238356	0	0	0	0	0	0	0	0	2.426570649309934e-20	2.426570649309934e-20	0	0	0	0	0	2.426570649309934e-20	2.426570649309934e-20	0	0
0.13	105479.9690749118	-123480.0720563557	-8753.25031581282	0	0.93	0	0.3709050443157737	0.02311002691356843	-0.157365812392556	0.6827919587392565	0.01191696778614129	0.3075017948939929	0	0	0.391525678665572	-0.0180413773829631	-0.143611453928679	0.6686337283751996	0.01166986005003267	0.2779570875054649	0	0	0	0	0	0	0	0	2.426570649309934e-20	2.426570649309934e-20	0	0	0	0	0	2.426570649309934e-20	2.426570649309934e-20	0	0
